<svg width="58" height="58" viewBox="-3 -3 64 64" fill="none" xmlns="http://www.w3.org/2000/svg">
<path d="M29 58C45.0163 58 58 45.0163 58 29C58 12.9837 45.0163 0 29 0C12.9837 0 0 12.9837 0 29C0 45.0163 12.9837 58 29 58Z" fill="#5F67FA"/>
<path d="M40.0745 35.09C40.0745 37.05 34.6695 38.5083 29.0115 38.5083C23.3535 38.5083 17.9255 37.0267 17.9255 35.0083V39.3133C17.9255 41.355 23.158 42.9183 28.931 42.9183C34.98 42.9183 40.063 41.2033 40.063 39.0217V35.055L40.0745 35.09Z" fill="white"/>
<path d="M28.9311 35.9067C34.9801 35.9067 40.0631 34.1917 40.0631 32.0217V27.8333C40.0631 29.7933 34.6581 31.2517 29.0001 31.2517C23.3421 31.2517 17.9141 29.77 17.9141 27.7517V32.2317C17.9256 34.355 23.1581 35.9067 28.9311 35.9067Z" fill="white"/>
<path d="M28.9311 28.8133C35.0951 28.8133 40.0631 27.1333 40.0631 24.8583V20.8333C40.0631 22.7933 34.6581 24.2517 29.0001 24.2517C23.3421 24.2517 17.9141 22.77 17.9141 20.7517V25.15C17.9256 27.2033 23.1581 28.8133 28.9311 28.8133Z" fill="white"/>
<path d="M29.0575 21.58C35.0531 21.58 39.9135 20.1175 39.9135 18.3133C39.9135 16.5092 35.0531 15.0467 29.0575 15.0467C23.0619 15.0467 18.2015 16.5092 18.2015 18.3133C18.2015 20.1175 23.0619 21.58 29.0575 21.58Z" fill="white" fill-opacity="0.6"/>
</svg>
